inDegrees=yes
name=ik_lifting_orientations
DataType=double
version=3
OpenSimVersion=4.5-2024-01-10-34fd6af
endheader
time	pelvis_tilt	pelvis_list	pelvis_rotation	pelvis_tx	pelvis_ty	pelvis_tz	hip_flexion_r	hip_adduction_r	hip_rotation_r	knee_angle_r	knee_angle_r_beta	ankle_angle_r	subtalar_angle_r	mtp_angle_r	hip_flexion_l	hip_adduction_l	hip_rotation_l	knee_angle_l	knee_angle_l_beta	ankle_angle_l	subtalar_angle_l	mtp_angle_l	lumbar_extension	lumbar_bending	lumbar_rotation	arm_flex_r	arm_add_r	arm_rot_r	elbow_flex_r	pro_sup_r	wrist_flex_r	wrist_dev_r	arm_flex_l	arm_add_l	arm_rot_l	elbow_flex_l	pro_sup_l	wrist_flex_l	wrist_dev_l
0.02	0.004825724232458715	-0.003961046041492414	-90.01736178742955	0	0.9399999998679526	0	45.41538661964738	-11.48088954948578	0	60.9099260918546	1.063078757449265	-5.647043631930206	0	0	45.41538661964738	-11.48088954948578	0	60.9099260918546	1.063078757449265	-5.647043631930206	0	0	-0.004780050054179591	-0.006649066928332019	-0.007166709076568854	-0.2326022128652014	-0.0547095512700891	0.0006181925894582106	0.4968155545178449	1.167929600481867	0	0	0	-10.17372371366616	0	88.87106689225243	1.167929600481867	0	0
0.03	0.009517665670155211	0.00889839615723023	-90.03721107059913	0	0.9399999998679526	0	45.40456543614969	-11.36366183282576	0	60.891148553416	1.062751027578091	-5.583831764987742	0	0	45.40456543614969	-11.36366183282576	0	60.891148553416	1.062751027578091	-5.583831764987742	0	0	0.006056348344438117	-0.0107486421718707	-0.0464493498901285	-0.2310282477700729	-0.05382216210032258	0.05738962059858862	0.4910453098573775	1.146381377335491	0	0	0	-10.24003963101512	0	88.89189224637177	1.146381377335491	0	0
0.04	-0.04915377613953888	-0.04732097185884292	-90.26652054304158	0	0.9399999998679526	0	45.40451079412664	-11.36303687935252	0	60.89105180425418	1.062749338986669	-5.58348509891504	0	0	45.40451079412664	-11.36303687935252	0	60.89105180425418	1.062749338986669	-5.58348509891504	0	0	-0.009833423298401886	0.01573585818704691	0.130010420325461	-0.2462493267625126	0.000305239918645772	0.1072765266958231	0.482774627756439	1.146272632130651	0	0	0	-10.24037505536212	0	88.8919973435202	1.146272632130651	0	0
0.05	-0.05998399513368628	-0.0533175383642495	-90.23553151056629	0	0.9399999998679526	0	45.3952108265275	-11.2661254903984	0	60.87485239816777	1.062466606013594	-5.531962216375883	0	0	45.3952108265275	-11.2661254903984	0	60.87485239816777	1.062466606013594	-5.531962216375883	0	0	-0.02493891089008619	0.02264757597102776	0.1137753805658288	-0.2270544853791788	0.05050900162825449	0.09044772564282257	0.4718580654552018	1.127654404728144	0	0	0	-10.29786044570784	0	88.90999099858601	1.127654404728144	0	0
0.06	-0.03788584751553872	-0.0231890366209804	-90.1814858561761	0	0.9399999998679526	0	45.38817679506852	-11.19792231105074	0	60.86250986645676	1.062251188197205	-5.496604285362774	0	0	45.38817679506852	-11.19792231105074	0	60.86250986645676	1.062251188197205	-5.496604285362774	0	0	0.03275495609020236	0.0149567509068013	0.0002865962941814873	-0.3077871966583641	-0.0118374648080371	0.1493048239997686	0.5747563846899375	1.113428305775739	0	0	0	-10.34205966670343	0	88.92373987303205	1.113428305775739	0	0
0.07000000000000001	-0.04654673471417677	-0.0404406223347297	-90.46613009024192	0	0.9399999998679526	0	45.38811393013193	-11.19726664538741	0	60.86239727465739	1.062249223099595	-5.49625232239941	0	0	45.38811393013193	-11.19726664538741	0	60.86239727465739	1.062249223099595	-5.49625232239941	0	0	-0.003203854266783586	0.0213092118096119	0.2641018913299095	-0.2427961544042176	0.009228002546989016	0.1779407527071755	0.4812918990243586	1.113301523170088	0	0	0	-10.34245399970189	0	88.92386240257888	1.113301523170088	0	0
0.08	-0.01501261518646582	-0.03913899881721358	-90.53037984451511	0	0.9399999998679526	0	45.37199879989439	-11.04438165523148	0	60.83406929396664	1.0617548065661	-5.41775534146015	0	0	45.37199879989439	-11.04438165523148	0	60.83406929396664	1.0617548065661	-5.41775534146015	0	0	0.02016638495889409	-0.03301827165406427	0.3174332334498139	-0.2557506655123507	0.01981862149721221	0.1793193084793005	0.5573665395583007	1.080626217504786	0	0	0	-10.44412552418963	0	88.95544159556951	1.080626217504786	0	0
0.09	-0.0203692803715635	-0.04166783673332084	-90.57079818263102	0	0.9399999998679526	0	45.35641368001483	-10.90949802597106	0	60.80643207219082	1.061272446050008	-5.350854006927559	0	0	45.35641368001483	-10.90949802597106	0	60.80643207219082	1.061272446050008	-5.350854006927559	0	0	0.006081128407680269	-0.02148929295780557	0.3627956502409976	-0.1879006629073341	0.05666457024022067	0.1696547882008081	0.4399376893151546	1.048635133325698	0	0	0	-10.54441147473515	0	88.98635953978226	1.048635133325698	0	0
0.1	-0.04753036503654807	-0.04118609800485366	-90.22373427775747	0	0.9399999998679526	0	45.3563300373423	-10.90876475435544	0	60.80628148134568	1.061269817743937	-5.350486412806885	0	0	45.3563300373423	-10.90876475435544	0	60.80628148134568	1.061269817743937	-5.350486412806885	0	0	0.02067314040681231	-0.007808910024472994	0.01237058119672553	-0.1967380832869075	0.0801882876265918	0.1790906892644422	0.4263436892607397	1.048462974086235	0	0	0	-10.54495297867783	0	88.98652592394875	1.048462974086235	0	0
0.11	-0.06758066291334164	-0.06830599347847689	-90.14171350343211	0	0.9399999998679526	0	45.3495336665022	-10.85647391259984	0	60.79408761111004	1.061056994559764	-5.325612268746905	0	0	45.3495336665022	-10.85647391259984	0	60.79408761111004	1.061056994559764	-5.325612268746905	0	0	0.002247683116399917	-0.002901176793038037	-0.08828868212618278	-0.2073397662229724	0.09412297798030066	0.1964813634134102	0.4292610811320095	1.034280478679866	0	0	0	-10.58986266098879	0	89.00023267943538	1.034280478679866	0	0
0.12	-0.03001569566862027	-0.03093256249074566	-89.94968826274228	0	0.9399999998679526	0	45.34948345799404	-10.85605325485772	0	60.79399652174379	1.061055404750409	-5.325404631595303	0	0	45.34948345799404	-10.85605325485772	0	60.79399652174379	1.061055404750409	-5.325404631595303	0	0	0.06138111843241852	-0.04569469448967171	-0.2676305568595105	-0.2399854379512251	0.09568758748946316	0.1737951190095093	0.4399349343476548	1.034176399321309	0	0	0	-10.59019155677233	0	89.00033326749114	1.034176399321309	0	0
0.13	-0.05259517796766736	-0.03274339386644202	-90.06988917451872	0	0.9399999998679526	0	45.34017042669361	-10.78700764950751	0	60.77722870698898	1.060762751174574	-5.293042890862031	0	0	45.34017042669361	-10.78700764950751	0	60.77722870698898	1.060762751174574	-5.293042890862031	0	0	0.06391047037323905	-0.02912820330413074	-0.1760951432064689	-0.4785943746603843	0.049937761672369	0.2100184484028761	0.9284857954549026	1.014648380676534	0	0	0	-10.65220885780891	0	89.01920623929396	1.014648380676534	0	0
0.14	-0.05951712925560038	-0.05437721816152147	-90.20337656600883	0	0.9399999998679526	0	45.32610693646608	-10.68696325159355	0	60.75180939106401	1.060319100418078	-5.246894596990298	0	0	45.32610693646608	-10.68696325159355	0	60.75180939106401	1.060319100418078	-5.246894596990298	0	0	0.02585707212531885	-0.02523456575800491	-0.04211148341312782	-0.2218163849173357	0.09737235935043592	0.2069307746807032	0.437038424026309	0.9849985248988892	0	0	0	-10.74668141954934	0	89.04786152793771	0.9849985248988892	0	0
0.15	-0.09887945175054458	-0.09828406350973592	-90.2316663671718	0	0.9399999998679526	0	45.31021034721683	-10.5970710993698	0	60.72243908642585	1.059806491899829	-5.208840892763411	0	0	45.31021034721683	-10.5970710993698	0	60.72243908642585	1.059806491899829	-5.208840892763411	0	0	-0.01366665835915682	0.01354681832203136	-0.01194169747477705	-0.2398332886620958	0.1125130378947578	0.2072739403417458	0.4044169220551315	0.9504299426035892	0	0	0	-10.85891887621955	0	89.081270595032	0.9504299426035892	0	0
0.16	-0.03972857002881167	-0.05133069902064835	-90.11840262620969	0	0.9399999998679526	0	45.31017552571863	-10.59683989075883	0	60.72237478881978	1.059805369694902	-5.208735688269312	0	0	45.31017552571863	-10.59683989075883	0	60.72237478881978	1.059805369694902	-5.208735688269312	0	0	0.04641122056731077	-0.03074678492663648	-0.1015370799325201	-0.2617989509238854	0.1151296835846567	0.1657956987371196	0.4155888185165466	0.9503554104700699	0	0	0	-10.85915894027568	0	89.08134262711924	0.9503554104700699	0	0
